<?xml version="1.0" encoding="us-ascii" standalone="no"?><svg xmlns="http://www.w3.org/2000/svg" xmlns:xlink="http://www.w3.org/1999/xlink" contentStyleType="text/css" height="540px" preserveAspectRatio="none" style="width:813px;height:540px;background:#FFFFFF;" version="1.1" viewBox="0 0 813 540" width="813px" zoomAndPan="magnify"><defs/><g><!--class EMPRESA--><g id="elem_EMPRESA"><rect codeLine="2" fill="#F1F1F1" height="96.8906" id="EMPRESA" rx="2.5" ry="2.5" style="stroke:#181818;stroke-width:0.5;" width="191" x="238.5" y="246.08"/><ellipse cx="296.25" cy="262.08" fill="#ADD1B2" rx="11" ry="11" style="stroke:#181818;stroke-width:1.0;"/><path d="M299.2188,267.7206 Q298.6406,268.0175 298,268.1581 Q297.3594,268.3144 296.6563,268.3144 Q294.1563,268.3144 292.8281,266.6738 Q291.5156,265.0175 291.5156,261.8925 Q291.5156,258.7675 292.8281,257.1113 Q294.1563,255.455 296.6563,255.455 Q297.3594,255.455 298,255.6112 Q298.6563,255.7675 299.2188,256.0644 L299.2188,258.7831 Q298.5938,258.205 298,257.9394 Q297.4063,257.6581 296.7813,257.6581 Q295.4375,257.6581 294.75,258.7363 Q294.0625,259.7988 294.0625,261.8925 Q294.0625,263.9863 294.75,265.0644 Q295.4375,266.1269 296.7813,266.1269 Q297.4063,266.1269 298,265.8613 Q298.5938,265.58 299.2188,265.0019 L299.2188,267.7206 Z " fill="#000000"/><text fill="#000000" font-family="sans-serif" font-size="14" lengthAdjust="spacing" textLength="67" x="316.75" y="266.9267">EMPRESA</text><line style="stroke:#181818;stroke-width:0.5;" x1="239.5" x2="428.5" y1="278.08" y2="278.08"/><line style="stroke:#181818;stroke-width:0.5;" x1="239.5" x2="428.5" y1="286.08" y2="286.08"/><text fill="#000000" font-family="sans-serif" font-size="14" lengthAdjust="spacing" textLength="179" x="244.5" y="303.0751">id_empresa VARCHAR(PK)</text><text fill="#000000" font-family="sans-serif" font-size="14" lengthAdjust="spacing" textLength="162" x="244.5" y="319.372">nombre VARCHAR(255)</text><text fill="#000000" font-family="sans-serif" font-size="14" lengthAdjust="spacing" textLength="152" x="244.5" y="335.6689">sector VARCHAR(100)</text></g><!--class USUARIO--><g id="elem_USUARIO"><rect codeLine="8" fill="#F1F1F1" height="113.1875" id="USUARIO" rx="2.5" ry="2.5" style="stroke:#181818;stroke-width:0.5;" width="190" x="7" y="23.3"/><ellipse cx="66.75" cy="39.3" fill="#ADD1B2" rx="11" ry="11" style="stroke:#181818;stroke-width:1.0;"/><path d="M69.7188,44.9406 Q69.1406,45.2375 68.5,45.3781 Q67.8594,45.5344 67.1563,45.5344 Q64.6563,45.5344 63.3281,43.8937 Q62.0156,42.2375 62.0156,39.1125 Q62.0156,35.9875 63.3281,34.3312 Q64.6563,32.675 67.1563,32.675 Q67.8594,32.675 68.5,32.8312 Q69.1563,32.9875 69.7188,33.2844 L69.7188,36.0031 Q69.0938,35.425 68.5,35.1594 Q67.9063,34.8781 67.2813,34.8781 Q65.9375,34.8781 65.25,35.9562 Q64.5625,37.0187 64.5625,39.1125 Q64.5625,41.2062 65.25,42.2844 Q65.9375,43.3469 67.2813,43.3469 Q67.9063,43.3469 68.5,43.0812 Q69.0938,42.8 69.7188,42.2219 L69.7188,44.9406 Z " fill="#000000"/><text fill="#000000" font-family="sans-serif" font-size="14" lengthAdjust="spacing" textLength="62" x="87.25" y="44.1467">USUARIO</text><line style="stroke:#181818;stroke-width:0.5;" x1="8" x2="196" y1="55.3" y2="55.3"/><line style="stroke:#181818;stroke-width:0.5;" x1="8" x2="196" y1="63.3" y2="63.3"/><text fill="#000000" font-family="sans-serif" font-size="14" lengthAdjust="spacing" textLength="169" x="13" y="80.2951">id_usuario VARCHAR(PK)</text><text fill="#000000" font-family="sans-serif" font-size="14" lengthAdjust="spacing" textLength="162" x="13" y="96.592">nombre VARCHAR(255)</text><text fill="#000000" font-family="sans-serif" font-size="14" lengthAdjust="spacing" textLength="116" x="13" y="112.8889">rol VARCHAR(50)</text><text fill="#000000" font-family="sans-serif" font-size="14" lengthAdjust="spacing" textLength="178" x="13" y="129.1857">id_empresa VARCHAR(FK)</text></g><!--class CATEGORIA_EMISION--><g id="elem_CATEGORIA_EMISION"><rect codeLine="15" fill="#F1F1F1" height="96.8906" id="CATEGORIA_EMISION" rx="2.5" ry="2.5" style="stroke:#181818;stroke-width:0.5;" width="200" x="371" y="436.27"/><ellipse cx="396.35" cy="452.27" fill="#ADD1B2" rx="11" ry="11" style="stroke:#181818;stroke-width:1.0;"/><path d="M399.3188,457.9106 Q398.7406,458.2075 398.1,458.3481 Q397.4594,458.5044 396.7563,458.5044 Q394.2563,458.5044 392.9281,456.8638 Q391.6156,455.2075 391.6156,452.0825 Q391.6156,448.9575 392.9281,447.3013 Q394.2563,445.645 396.7563,445.645 Q397.4594,445.645 398.1,445.8013 Q398.7563,445.9575 399.3188,446.2544 L399.3188,448.9731 Q398.6938,448.395 398.1,448.1294 Q397.5063,447.8481 396.8813,447.8481 Q395.5375,447.8481 394.85,448.9263 Q394.1625,449.9888 394.1625,452.0825 Q394.1625,454.1763 394.85,455.2544 Q395.5375,456.3169 396.8813,456.3169 Q397.5063,456.3169 398.1,456.0513 Q398.6938,455.77 399.3188,455.1919 L399.3188,457.9106 Z " fill="#000000"/><text fill="#000000" font-family="sans-serif" font-size="14" lengthAdjust="spacing" textLength="145" x="412.65" y="457.1167">CATEGORIA_EMISION</text><line style="stroke:#181818;stroke-width:0.5;" x1="372" x2="570" y1="468.27" y2="468.27"/><line style="stroke:#181818;stroke-width:0.5;" x1="372" x2="570" y1="476.27" y2="476.27"/><text fill="#000000" font-family="sans-serif" font-size="14" lengthAdjust="spacing" textLength="182" x="377" y="493.2651">id_categoria VARCHAR(PK)</text><text fill="#000000" font-family="sans-serif" font-size="14" lengthAdjust="spacing" textLength="162" x="377" y="509.562">nombre VARCHAR(255)</text><text fill="#000000" font-family="sans-serif" font-size="14" lengthAdjust="spacing" textLength="188" x="377" y="525.8589">descripcion VARCHAR(255)</text></g><!--class ALCANCE--><g id="elem_ALCANCE"><rect codeLine="21" fill="#F1F1F1" height="96.8906" id="ALCANCE" rx="2.5" ry="2.5" style="stroke:#181818;stroke-width:0.5;" width="200" x="606" y="436.27"/><ellipse cx="669.75" cy="452.27" fill="#ADD1B2" rx="11" ry="11" style="stroke:#181818;stroke-width:1.0;"/><path d="M672.7188,457.9106 Q672.1406,458.2075 671.5,458.3481 Q670.8594,458.5044 670.1563,458.5044 Q667.6563,458.5044 666.3281,456.8638 Q665.0156,455.2075 665.0156,452.0825 Q665.0156,448.9575 666.3281,447.3013 Q667.6563,445.645 670.1563,445.645 Q670.8594,445.645 671.5,445.8013 Q672.1563,445.9575 672.7188,446.2544 L672.7188,448.9731 Q672.0938,448.395 671.5,448.1294 Q670.9063,447.8481 670.2813,447.8481 Q668.9375,447.8481 668.25,448.9263 Q667.5625,449.9888 667.5625,452.0825 Q667.5625,454.1763 668.25,455.2544 Q668.9375,456.3169 670.2813,456.3169 Q670.9063,456.3169 671.5,456.0513 Q672.0938,455.77 672.7188,455.1919 L672.7188,457.9106 Z " fill="#000000"/><text fill="#000000" font-family="sans-serif" font-size="14" lengthAdjust="spacing" textLength="64" x="690.25" y="457.1167">ALCANCE</text><line style="stroke:#181818;stroke-width:0.5;" x1="607" x2="805" y1="468.27" y2="468.27"/><line style="stroke:#181818;stroke-width:0.5;" x1="607" x2="805" y1="476.27" y2="476.27"/><text fill="#000000" font-family="sans-serif" font-size="14" lengthAdjust="spacing" textLength="126" x="612" y="493.2651">id_alcance INT(PK)</text><text fill="#000000" font-family="sans-serif" font-size="14" lengthAdjust="spacing" textLength="162" x="612" y="509.562">nombre VARCHAR(255)</text><text fill="#000000" font-family="sans-serif" font-size="14" lengthAdjust="spacing" textLength="188" x="612" y="525.8589">descripcion VARCHAR(255)</text></g><!--class FUENTE_EMISION--><g id="elem_FUENTE_EMISION"><rect codeLine="27" fill="#F1F1F1" height="129.4844" id="FUENTE_EMISION" rx="2.5" ry="2.5" style="stroke:#181818;stroke-width:0.5;" width="236" x="470" y="229.79"/><ellipse cx="524.25" cy="245.79" fill="#ADD1B2" rx="11" ry="11" style="stroke:#181818;stroke-width:1.0;"/><path d="M527.2188,251.4306 Q526.6406,251.7275 526,251.8681 Q525.3594,252.0244 524.6563,252.0244 Q522.1563,252.0244 520.8281,250.3837 Q519.5156,248.7275 519.5156,245.6025 Q519.5156,242.4775 520.8281,240.8212 Q522.1563,239.165 524.6563,239.165 Q525.3594,239.165 526,239.3212 Q526.6563,239.4775 527.2188,239.7744 L527.2188,242.4931 Q526.5938,241.915 526,241.6494 Q525.4063,241.3681 524.7813,241.3681 Q523.4375,241.3681 522.75,242.4462 Q522.0625,243.5087 522.0625,245.6025 Q522.0625,247.6962 522.75,248.7744 Q523.4375,249.8369 524.7813,249.8369 Q525.4063,249.8369 526,249.5712 Q526.5938,249.29 527.2188,248.7119 L527.2188,251.4306 Z " fill="#000000"/><text fill="#000000" font-family="sans-serif" font-size="14" lengthAdjust="spacing" textLength="119" x="544.75" y="250.6367">FUENTE_EMISION</text><line style="stroke:#181818;stroke-width:0.5;" x1="471" x2="705" y1="261.79" y2="261.79"/><text fill="#000000" font-family="sans-serif" font-size="14" lengthAdjust="spacing" textLength="168" x="476" y="278.7851">factor_emision NUMERIC</text><line style="stroke:#181818;stroke-width:0.5;" x1="471" x2="705" y1="286.0869" y2="286.0869"/><text fill="#000000" font-family="sans-serif" font-size="14" lengthAdjust="spacing" textLength="224" x="476" y="303.082">id_fuente_emision VARCHAR(PK)</text><text fill="#000000" font-family="sans-serif" font-size="14" lengthAdjust="spacing" textLength="162" x="476" y="319.3789">nombre VARCHAR(255)</text><text fill="#000000" font-family="sans-serif" font-size="14" lengthAdjust="spacing" textLength="181" x="476" y="335.6757">id_categoria VARCHAR(FK)</text><text fill="#000000" font-family="sans-serif" font-size="14" lengthAdjust="spacing" textLength="125" x="476" y="351.9726">id_alcance INT(FK)</text></g><!--class EMISION--><g id="elem_EMISION"><rect codeLine="35" fill="#F1F1F1" height="145.7813" id="EMISION" rx="2.5" ry="2.5" style="stroke:#181818;stroke-width:0.5;" width="235" x="470.5" y="7"/><ellipse cx="555.25" cy="23" fill="#ADD1B2" rx="11" ry="11" style="stroke:#181818;stroke-width:1.0;"/><path d="M558.2188,28.6406 Q557.6406,28.9375 557,29.0781 Q556.3594,29.2344 555.6563,29.2344 Q553.1563,29.2344 551.8281,27.5938 Q550.5156,25.9375 550.5156,22.8125 Q550.5156,19.6875 551.8281,18.0313 Q553.1563,16.375 555.6563,16.375 Q556.3594,16.375 557,16.5313 Q557.6563,16.6875 558.2188,16.9844 L558.2188,19.7031 Q557.5938,19.125 557,18.8594 Q556.4063,18.5781 555.7813,18.5781 Q554.4375,18.5781 553.75,19.6563 Q553.0625,20.7188 553.0625,22.8125 Q553.0625,24.9063 553.75,25.9844 Q554.4375,27.0469 555.7813,27.0469 Q556.4063,27.0469 557,26.7813 Q557.5938,26.5 558.2188,25.9219 L558.2188,28.6406 Z " fill="#000000"/><text fill="#000000" font-family="sans-serif" font-size="14" lengthAdjust="spacing" textLength="57" x="575.75" y="27.8467">EMISION</text><line style="stroke:#181818;stroke-width:0.5;" x1="471.5" x2="704.5" y1="39" y2="39"/><text fill="#000000" font-family="sans-serif" font-size="14" lengthAdjust="spacing" textLength="80" x="476.5" y="55.9951">fecha DATE</text><text fill="#000000" font-family="sans-serif" font-size="14" lengthAdjust="spacing" textLength="127" x="476.5" y="72.292">cantidad NUMERIC</text><line style="stroke:#181818;stroke-width:0.5;" x1="471.5" x2="704.5" y1="79.5938" y2="79.5938"/><text fill="#000000" font-family="sans-serif" font-size="14" lengthAdjust="spacing" textLength="172" x="476.5" y="96.5889">id_emision VARCHAR(PK)</text><text fill="#000000" font-family="sans-serif" font-size="14" lengthAdjust="spacing" textLength="146" x="476.5" y="112.8857">unidad VARCHAR(50)</text><text fill="#000000" font-family="sans-serif" font-size="14" lengthAdjust="spacing" textLength="178" x="476.5" y="129.1826">id_empresa VARCHAR(FK)</text><text fill="#000000" font-family="sans-serif" font-size="14" lengthAdjust="spacing" textLength="223" x="476.5" y="145.4795">id_fuente_emision VARCHAR(FK)</text></g><!--class REPORTE--><g id="elem_REPORTE"><rect codeLine="44" fill="#F1F1F1" height="113.1875" id="REPORTE" rx="2.5" ry="2.5" style="stroke:#181818;stroke-width:0.5;" width="204" x="232" y="23.3"/><ellipse cx="296.25" cy="39.3" fill="#ADD1B2" rx="11" ry="11" style="stroke:#181818;stroke-width:1.0;"/><path d="M299.2188,44.9406 Q298.6406,45.2375 298,45.3781 Q297.3594,45.5344 296.6563,45.5344 Q294.1563,45.5344 292.8281,43.8937 Q291.5156,42.2375 291.5156,39.1125 Q291.5156,35.9875 292.8281,34.3312 Q294.1563,32.675 296.6563,32.675 Q297.3594,32.675 298,32.8312 Q298.6563,32.9875 299.2188,33.2844 L299.2188,36.0031 Q298.5938,35.425 298,35.1594 Q297.4063,34.8781 296.7813,34.8781 Q295.4375,34.8781 294.75,35.9562 Q294.0625,37.0187 294.0625,39.1125 Q294.0625,41.2062 294.75,42.2844 Q295.4375,43.3469 296.7813,43.3469 Q297.4063,43.3469 298,43.0812 Q298.5938,42.8 299.2188,42.2219 L299.2188,44.9406 Z " fill="#000000"/><text fill="#000000" font-family="sans-serif" font-size="14" lengthAdjust="spacing" textLength="67" x="316.75" y="44.1467">REPORTE</text><line style="stroke:#181818;stroke-width:0.5;" x1="233" x2="435" y1="55.3" y2="55.3"/><text fill="#000000" font-family="sans-serif" font-size="14" lengthAdjust="spacing" textLength="165" x="238" y="72.2951">fecha_generacion DATE</text><line style="stroke:#181818;stroke-width:0.5;" x1="233" x2="435" y1="79.5969" y2="79.5969"/><text fill="#000000" font-family="sans-serif" font-size="14" lengthAdjust="spacing" textLength="169" x="238" y="96.592">id_reporte VARCHAR(PK)</text><text fill="#000000" font-family="sans-serif" font-size="14" lengthAdjust="spacing" textLength="192" x="238" y="112.8889">tipo_reporte VARCHAR(100)</text><text fill="#000000" font-family="sans-serif" font-size="14" lengthAdjust="spacing" textLength="178" x="238" y="129.1857">id_empresa VARCHAR(FK)</text></g><!--link USUARIO to EMPRESA--><g id="link_USUARIO_EMPRESA"><path codeLine="52" d="M162.96,136.76 C199.87,170.6 246.48,213.31 281.71,245.61 " fill="none" id="USUARIO-EMPRESA" style="stroke:#181818;stroke-width:1.0;"/><text fill="#000000" font-family="sans-serif" font-size="13" lengthAdjust="spacing" textLength="75" x="226" y="195.8569">id_empresa</text></g><!--link EMISION to EMPRESA--><g id="link_EMISION_EMPRESA"><path codeLine="53" d="M501.65,153.18 C465.12,183.76 423.58,218.54 390.98,245.83 " fill="none" id="EMISION-EMPRESA" style="stroke:#181818;stroke-width:1.0;"/><text fill="#000000" font-family="sans-serif" font-size="13" lengthAdjust="spacing" textLength="75" x="462" y="195.8569">id_empresa</text></g><!--link REPORTE to EMPRESA--><g id="link_REPORTE_EMPRESA"><path codeLine="54" d="M334,136.76 C334,170.6 334,213.31 334,245.61 " fill="none" id="REPORTE-EMPRESA" style="stroke:#181818;stroke-width:1.0;"/><text fill="#000000" font-family="sans-serif" font-size="13" lengthAdjust="spacing" textLength="75" x="335" y="195.8569">id_empresa</text></g><!--link FUENTE_EMISION to CATEGORIA_EMISION--><g id="link_FUENTE_EMISION_CATEGORIA_EMISION"><path codeLine="55" d="M548.06,359.76 C532.57,384.68 515.14,412.71 500.79,435.81 " fill="none" id="FUENTE_EMISION-CATEGORIA_EMISION" style="stroke:#181818;stroke-width:1.0;"/><text fill="#000000" font-family="sans-serif" font-size="13" lengthAdjust="spacing" textLength="78" x="530" y="402.3369">id_categoria</text></g><!--link FUENTE_EMISION to ALCANCE--><g id="link_FUENTE_EMISION_ALCANCE"><path codeLine="56" d="M628.28,359.76 C643.9,384.68 661.48,412.71 675.96,435.81 " fill="none" id="FUENTE_EMISION-ALCANCE" style="stroke:#181818;stroke-width:1.0;"/><text fill="#000000" font-family="sans-serif" font-size="13" lengthAdjust="spacing" textLength="67" x="655" y="402.3369">id_alcance</text></g><!--link EMISION to FUENTE_EMISION--><g id="link_EMISION_FUENTE_EMISION"><path codeLine="57" d="M588,153.18 C588,177.98 588,205.54 588,229.63 " fill="none" id="EMISION-FUENTE_EMISION" style="stroke:#181818;stroke-width:1.0;"/><text fill="#000000" font-family="sans-serif" font-size="13" lengthAdjust="spacing" textLength="116" x="589" y="195.8569">id_fuente_emision</text></g><!--SRC=[fLFBReCm4BpxAtmiXqYqKYxSBEgqA0r43lIA7BEabXACR3XL_VSIL5ky4aNgaLdlxEpE8CxS64ntUqOF17yZZ6MHmwNMO3Z-92ny9-nfl_MwGgKkHmqEV5clhwW1qIZjq6VVzz0FGgBdpGuPOL5YULlJSYtLGxnQdHsqzhrbOPljO5X8KlgMi8ZaT1STeYIsOmLluAIqV6oX0epGiXPILUEI6qG-GXA7rDBpi-2L01p5wJ-9DncDKpgLNxPGDT3jBismzTweabzDSIrnjgCi2czTOxFrvfkCJZjHj2ob1F75yMldGlVH4JMouCLWTblrm4Ectbjyf8pHVS9IvuM6Mka6bfJb9wX0y_xyVo8RMQjPIv_WUsb3DjMhbVjnWi5xPAzrgsurtwfFOj0zcqSx65cvq6936WoC7IgRT0JpWoFq2m00]--></g></svg>