<?xml version="1.0" encoding="us-ascii" standalone="no"?><svg xmlns="http://www.w3.org/2000/svg" xmlns:xlink="http://www.w3.org/1999/xlink" contentStyleType="text/css" height="426px" preserveAspectRatio="none" style="width:657px;height:426px;background:#FFFFFF;" version="1.1" viewBox="0 0 657 426" width="657px" zoomAndPan="magnify"><defs/><g><!--class EMPRESA--><g id="elem_EMPRESA"><rect codeLine="2" fill="#F1F1F1" height="96.8906" id="EMPRESA" rx="2.5" ry="2.5" style="stroke:#181818;stroke-width:0.5;" width="191" x="186.5" y="197.19"/><ellipse cx="244.25" cy="213.19" fill="#ADD1B2" rx="11" ry="11" style="stroke:#181818;stroke-width:1.0;"/><path d="M247.2188,218.8306 Q246.6406,219.1275 246,219.2681 Q245.3594,219.4244 244.6563,219.4244 Q242.1563,219.4244 240.8281,217.7838 Q239.5156,216.1275 239.5156,213.0025 Q239.5156,209.8775 240.8281,208.2213 Q242.1563,206.565 244.6563,206.565 Q245.3594,206.565 246,206.7213 Q246.6563,206.8775 247.2188,207.1744 L247.2188,209.8931 Q246.5938,209.315 246,209.0494 Q245.4063,208.7681 244.7813,208.7681 Q243.4375,208.7681 242.75,209.8463 Q242.0625,210.9088 242.0625,213.0025 Q242.0625,215.0963 242.75,216.1744 Q243.4375,217.2369 244.7813,217.2369 Q245.4063,217.2369 246,216.9713 Q246.5938,216.69 247.2188,216.1119 L247.2188,218.8306 Z " fill="#000000"/><text fill="#000000" font-family="sans-serif" font-size="14" lengthAdjust="spacing" textLength="67" x="264.75" y="218.0367">EMPRESA</text><line style="stroke:#181818;stroke-width:0.5;" x1="187.5" x2="376.5" y1="229.19" y2="229.19"/><line style="stroke:#181818;stroke-width:0.5;" x1="187.5" x2="376.5" y1="237.19" y2="237.19"/><text fill="#000000" font-family="sans-serif" font-size="14" lengthAdjust="spacing" textLength="179" x="192.5" y="254.1851">id_empresa VARCHAR(PK)</text><text fill="#000000" font-family="sans-serif" font-size="14" lengthAdjust="spacing" textLength="162" x="192.5" y="270.482">nombre VARCHAR(255)</text><text fill="#000000" font-family="sans-serif" font-size="14" lengthAdjust="spacing" textLength="152" x="192.5" y="286.7789">sector VARCHAR(100)</text></g><!--class USUARIO--><g id="elem_USUARIO"><rect codeLine="8" fill="#F1F1F1" height="113.1875" id="USUARIO" rx="2.5" ry="2.5" style="stroke:#181818;stroke-width:0.5;" width="190" x="7" y="7"/><ellipse cx="66.75" cy="23" fill="#ADD1B2" rx="11" ry="11" style="stroke:#181818;stroke-width:1.0;"/><path d="M69.7188,28.6406 Q69.1406,28.9375 68.5,29.0781 Q67.8594,29.2344 67.1563,29.2344 Q64.6563,29.2344 63.3281,27.5938 Q62.0156,25.9375 62.0156,22.8125 Q62.0156,19.6875 63.3281,18.0313 Q64.6563,16.375 67.1563,16.375 Q67.8594,16.375 68.5,16.5313 Q69.1563,16.6875 69.7188,16.9844 L69.7188,19.7031 Q69.0938,19.125 68.5,18.8594 Q67.9063,18.5781 67.2813,18.5781 Q65.9375,18.5781 65.25,19.6563 Q64.5625,20.7188 64.5625,22.8125 Q64.5625,24.9063 65.25,25.9844 Q65.9375,27.0469 67.2813,27.0469 Q67.9063,27.0469 68.5,26.7813 Q69.0938,26.5 69.7188,25.9219 L69.7188,28.6406 Z " fill="#000000"/><text fill="#000000" font-family="sans-serif" font-size="14" lengthAdjust="spacing" textLength="62" x="87.25" y="27.8467">USUARIO</text><line style="stroke:#181818;stroke-width:0.5;" x1="8" x2="196" y1="39" y2="39"/><line style="stroke:#181818;stroke-width:0.5;" x1="8" x2="196" y1="47" y2="47"/><text fill="#000000" font-family="sans-serif" font-size="14" lengthAdjust="spacing" textLength="169" x="13" y="63.9951">id_usuario VARCHAR(PK)</text><text fill="#000000" font-family="sans-serif" font-size="14" lengthAdjust="spacing" textLength="162" x="13" y="80.292">nombre VARCHAR(255)</text><text fill="#000000" font-family="sans-serif" font-size="14" lengthAdjust="spacing" textLength="116" x="13" y="96.5889">rol VARCHAR(50)</text><text fill="#000000" font-family="sans-serif" font-size="14" lengthAdjust="spacing" textLength="178" x="13" y="112.8857">id_empresa VARCHAR(FK)</text></g><!--class EMISION--><g id="elem_EMISION"><rect fill="#F1F1F1" height="48" id="EMISION" rx="2.5" ry="2.5" style="stroke:#181818;stroke-width:0.5;" width="89" x="418.5" y="39.6"/><ellipse cx="433.5" cy="55.6" fill="#ADD1B2" rx="11" ry="11" style="stroke:#181818;stroke-width:1.0;"/><path d="M436.4688,61.2406 Q435.8906,61.5375 435.25,61.6781 Q434.6094,61.8344 433.9063,61.8344 Q431.4063,61.8344 430.0781,60.1937 Q428.7656,58.5375 428.7656,55.4125 Q428.7656,52.2875 430.0781,50.6312 Q431.4063,48.975 433.9063,48.975 Q434.6094,48.975 435.25,49.1312 Q435.9063,49.2875 436.4688,49.5844 L436.4688,52.3031 Q435.8438,51.725 435.25,51.4594 Q434.6563,51.1781 434.0313,51.1781 Q432.6875,51.1781 432,52.2562 Q431.3125,53.3187 431.3125,55.4125 Q431.3125,57.5062 432,58.5844 Q432.6875,59.6469 434.0313,59.6469 Q434.6563,59.6469 435.25,59.3812 Q435.8438,59.1 436.4688,58.5219 L436.4688,61.2406 Z " fill="#000000"/><text fill="#000000" font-family="sans-serif" font-size="14" lengthAdjust="spacing" textLength="57" x="447.5" y="60.4467">EMISION</text><line style="stroke:#181818;stroke-width:0.5;" x1="419.5" x2="506.5" y1="71.6" y2="71.6"/><line style="stroke:#181818;stroke-width:0.5;" x1="419.5" x2="506.5" y1="79.6" y2="79.6"/></g><!--class REPORTE--><g id="elem_REPORTE"><rect fill="#F1F1F1" height="48" id="REPORTE" rx="2.5" ry="2.5" style="stroke:#181818;stroke-width:0.5;" width="99" x="232.5" y="39.6"/><ellipse cx="247.5" cy="55.6" fill="#ADD1B2" rx="11" ry="11" style="stroke:#181818;stroke-width:1.0;"/><path d="M250.4688,61.2406 Q249.8906,61.5375 249.25,61.6781 Q248.6094,61.8344 247.9063,61.8344 Q245.4063,61.8344 244.0781,60.1937 Q242.7656,58.5375 242.7656,55.4125 Q242.7656,52.2875 244.0781,50.6312 Q245.4063,48.975 247.9063,48.975 Q248.6094,48.975 249.25,49.1312 Q249.9063,49.2875 250.4688,49.5844 L250.4688,52.3031 Q249.8438,51.725 249.25,51.4594 Q248.6563,51.1781 248.0313,51.1781 Q246.6875,51.1781 246,52.2562 Q245.3125,53.3187 245.3125,55.4125 Q245.3125,57.5062 246,58.5844 Q246.6875,59.6469 248.0313,59.6469 Q248.6563,59.6469 249.25,59.3812 Q249.8438,59.1 250.4688,58.5219 L250.4688,61.2406 Z " fill="#000000"/><text fill="#000000" font-family="sans-serif" font-size="14" lengthAdjust="spacing" textLength="67" x="261.5" y="60.4467">REPORTE</text><line style="stroke:#181818;stroke-width:0.5;" x1="233.5" x2="330.5" y1="71.6" y2="71.6"/><line style="stroke:#181818;stroke-width:0.5;" x1="233.5" x2="330.5" y1="79.6" y2="79.6"/></g><!--class FUENTE_EMISION--><g id="elem_FUENTE_EMISION"><rect fill="#F1F1F1" height="48" id="FUENTE_EMISION" rx="2.5" ry="2.5" style="stroke:#181818;stroke-width:0.5;" width="151" x="440.5" y="221.63"/><ellipse cx="455.5" cy="237.63" fill="#ADD1B2" rx="11" ry="11" style="stroke:#181818;stroke-width:1.0;"/><path d="M458.4688,243.2706 Q457.8906,243.5675 457.25,243.7081 Q456.6094,243.8644 455.9063,243.8644 Q453.4063,243.8644 452.0781,242.2238 Q450.7656,240.5675 450.7656,237.4425 Q450.7656,234.3175 452.0781,232.6613 Q453.4063,231.005 455.9063,231.005 Q456.6094,231.005 457.25,231.1613 Q457.9063,231.3175 458.4688,231.6144 L458.4688,234.3331 Q457.8438,233.755 457.25,233.4894 Q456.6563,233.2081 456.0313,233.2081 Q454.6875,233.2081 454,234.2863 Q453.3125,235.3488 453.3125,237.4425 Q453.3125,239.5363 454,240.6144 Q454.6875,241.6769 456.0313,241.6769 Q456.6563,241.6769 457.25,241.4113 Q457.8438,241.13 458.4688,240.5519 L458.4688,243.2706 Z " fill="#000000"/><text fill="#000000" font-family="sans-serif" font-size="14" lengthAdjust="spacing" textLength="119" x="469.5" y="242.4767">FUENTE_EMISION</text><line style="stroke:#181818;stroke-width:0.5;" x1="441.5" x2="590.5" y1="253.63" y2="253.63"/><line style="stroke:#181818;stroke-width:0.5;" x1="441.5" x2="590.5" y1="261.63" y2="261.63"/></g><!--class CATEGORIA_EMISION--><g id="elem_CATEGORIA_EMISION"><rect fill="#F1F1F1" height="48" id="CATEGORIA_EMISION" rx="2.5" ry="2.5" style="stroke:#181818;stroke-width:0.5;" width="177" x="342.5" y="371.08"/><ellipse cx="357.5" cy="387.08" fill="#ADD1B2" rx="11" ry="11" style="stroke:#181818;stroke-width:1.0;"/><path d="M360.4688,392.7206 Q359.8906,393.0175 359.25,393.1581 Q358.6094,393.3144 357.9063,393.3144 Q355.4063,393.3144 354.0781,391.6738 Q352.7656,390.0175 352.7656,386.8925 Q352.7656,383.7675 354.0781,382.1113 Q355.4063,380.455 357.9063,380.455 Q358.6094,380.455 359.25,380.6113 Q359.9063,380.7675 360.4688,381.0644 L360.4688,383.7831 Q359.8438,383.205 359.25,382.9394 Q358.6563,382.6581 358.0313,382.6581 Q356.6875,382.6581 356,383.7363 Q355.3125,384.7988 355.3125,386.8925 Q355.3125,388.9863 356,390.0644 Q356.6875,391.1269 358.0313,391.1269 Q358.6563,391.1269 359.25,390.8613 Q359.8438,390.58 360.4688,390.0019 L360.4688,392.7206 Z " fill="#000000"/><text fill="#000000" font-family="sans-serif" font-size="14" lengthAdjust="spacing" textLength="145" x="371.5" y="391.9267">CATEGORIA_EMISION</text><line style="stroke:#181818;stroke-width:0.5;" x1="343.5" x2="518.5" y1="403.08" y2="403.08"/><line style="stroke:#181818;stroke-width:0.5;" x1="343.5" x2="518.5" y1="411.08" y2="411.08"/></g><!--class ALCANCE--><g id="elem_ALCANCE"><rect fill="#F1F1F1" height="48" id="ALCANCE" rx="2.5" ry="2.5" style="stroke:#181818;stroke-width:0.5;" width="96" x="554" y="371.08"/><ellipse cx="569" cy="387.08" fill="#ADD1B2" rx="11" ry="11" style="stroke:#181818;stroke-width:1.0;"/><path d="M571.9688,392.7206 Q571.3906,393.0175 570.75,393.1581 Q570.1094,393.3144 569.4063,393.3144 Q566.9063,393.3144 565.5781,391.6738 Q564.2656,390.0175 564.2656,386.8925 Q564.2656,383.7675 565.5781,382.1113 Q566.9063,380.455 569.4063,380.455 Q570.1094,380.455 570.75,380.6113 Q571.4063,380.7675 571.9688,381.0644 L571.9688,383.7831 Q571.3438,383.205 570.75,382.9394 Q570.1563,382.6581 569.5313,382.6581 Q568.1875,382.6581 567.5,383.7363 Q566.8125,384.7988 566.8125,386.8925 Q566.8125,388.9863 567.5,390.0644 Q568.1875,391.1269 569.5313,391.1269 Q570.1563,391.1269 570.75,390.8613 Q571.3438,390.58 571.9688,390.0019 L571.9688,392.7206 Z " fill="#000000"/><text fill="#000000" font-family="sans-serif" font-size="14" lengthAdjust="spacing" textLength="64" x="583" y="391.9267">ALCANCE</text><line style="stroke:#181818;stroke-width:0.5;" x1="555" x2="649" y1="403.08" y2="403.08"/><line style="stroke:#181818;stroke-width:0.5;" x1="555" x2="649" y1="411.08" y2="411.08"/></g><!--link USUARIO to EMPRESA--><g id="link_USUARIO_EMPRESA"><path codeLine="18" d="M150.01,120.54 C163.85,136 179.21,152.54 194,167.19 C203.98,177.07 214.97,187.25 225.7,196.86 " fill="none" id="USUARIO-EMPRESA" style="stroke:#181818;stroke-width:1.0;"/><text fill="#000000" font-family="sans-serif" font-size="13" lengthAdjust="spacing" textLength="75" x="195" y="163.2569">id_empresa</text></g><!--link EMISION to EMPRESA--><g id="link_EMISION_EMPRESA"><path codeLine="19" d="M439.69,87.83 C418.82,108.63 387.38,139.96 360,167.19 C350.39,176.74 340.12,186.95 330.28,196.72 " fill="none" id="EMISION-EMPRESA" style="stroke:#181818;stroke-width:1.0;"/><text fill="#000000" font-family="sans-serif" font-size="13" lengthAdjust="spacing" textLength="75" x="377" y="163.2569">id_empresa</text></g><!--link REPORTE to EMPRESA--><g id="link_REPORTE_EMPRESA"><path codeLine="20" d="M280.68,87.82 C279.65,108.61 278.47,139.93 279,167.19 C279.18,176.74 279.5,186.95 279.85,196.72 " fill="none" id="REPORTE-EMPRESA" style="stroke:#181818;stroke-width:1.0;"/><text fill="#000000" font-family="sans-serif" font-size="13" lengthAdjust="spacing" textLength="75" x="280" y="163.2569">id_empresa</text></g><!--link FUENTE_EMISION to CATEGORIA_EMISION--><g id="link_FUENTE_EMISION_CATEGORIA_EMISION"><path codeLine="21" d="M502.53,270 C486.62,297.61 460.29,343.27 444.41,370.83 " fill="none" id="FUENTE_EMISION-CATEGORIA_EMISION" style="stroke:#181818;stroke-width:1.0;"/><text fill="#000000" font-family="sans-serif" font-size="13" lengthAdjust="spacing" textLength="78" x="471" y="337.1469">id_categoria</text></g><!--link FUENTE_EMISION to ALCANCE--><g id="link_FUENTE_EMISION_ALCANCE"><path codeLine="22" d="M529.63,270 C545.73,297.61 572.36,343.27 588.44,370.83 " fill="none" id="FUENTE_EMISION-ALCANCE" style="stroke:#181818;stroke-width:1.0;"/><text fill="#000000" font-family="sans-serif" font-size="13" lengthAdjust="spacing" textLength="67" x="570" y="337.1469">id_alcance</text></g><!--link EMISION to FUENTE_EMISION--><g id="link_EMISION_FUENTE_EMISION"><path codeLine="23" d="M469.82,87.76 C479.97,122.24 498.94,186.68 509.12,221.27 " fill="none" id="EMISION-FUENTE_EMISION" style="stroke:#181818;stroke-width:1.0;"/><text fill="#000000" font-family="sans-serif" font-size="13" lengthAdjust="spacing" textLength="116" x="493" y="163.2569">id_fuente_emision</text></g><!--SRC=[ZP11ReCm44NtFiNi6XOWMebDTnPoMfG6a85k8zUuo1BWrCQhgeVf6Ng4NAo6AXQg4YahI__F__F6l6V60DcNb5GOFX60R0zYE6fX6BnYcZvZkYbtWJD6DRnfuSM799bL8_Yaj5VlupX0NmZnfRUf6aopujnhZMLQgfjwjUgzbCJ1PR3jRbbs1r4KmOQVVbhPAMW5kEtk6KxV1cOIOI04sLdMmuUTNN0rHolCn82Dat1GEa08dNd3q7_9usel8lkioehygaz9MT2QNFMt3SbhSbZLfBWcJmNDi1UN06UJw9IMboBu9SLvIlu6MS_PoCMQx5zY6NktmftfEAIHQaI_]--></g></svg>