<?xml version="1.0" encoding="us-ascii" standalone="no"?><svg xmlns="http://www.w3.org/2000/svg" xmlns:xlink="http://www.w3.org/1999/xlink" contentStyleType="text/css" height="506px" preserveAspectRatio="none" style="width:844px;height:506px;background:#FFFFFF;" version="1.1" viewBox="0 0 844 506" width="844px" zoomAndPan="magnify"><defs/><g><!--class EMPRESA--><g id="elem_EMPRESA"><rect codeLine="1" fill="#F1F1F1" height="96.8906" id="EMPRESA" rx="2.5" ry="2.5" style="stroke:#181818;stroke-width:0.5;" width="200" x="247.5" y="180.19"/><ellipse cx="309.75" cy="196.19" fill="#ADD1B2" rx="11" ry="11" style="stroke:#181818;stroke-width:1.0;"/><path d="M313.8594,202.19 L306.1406,202.19 L306.1406,189.7994 L313.8594,189.7994 L313.8594,191.9556 L308.5938,191.9556 L308.5938,194.6275 L313.3594,194.6275 L313.3594,196.7838 L308.5938,196.7838 L308.5938,200.0338 L313.8594,200.0338 L313.8594,202.19 Z " fill="#000000"/><text fill="#000000" font-family="sans-serif" font-size="14" lengthAdjust="spacing" textLength="67" x="330.25" y="201.0367">EMPRESA</text><line style="stroke:#181818;stroke-width:0.5;" x1="248.5" x2="446.5" y1="212.19" y2="212.19"/><line style="stroke:#181818;stroke-width:0.5;" x1="248.5" x2="446.5" y1="220.19" y2="220.19"/><text fill="#000000" font-family="sans-serif" font-size="14" lengthAdjust="spacing" textLength="188" x="253.5" y="237.1851">id_empresa : VARCHAR(PK)</text><text fill="#000000" font-family="sans-serif" font-size="14" lengthAdjust="spacing" textLength="171" x="253.5" y="253.482">nombre : VARCHAR(255)</text><text fill="#000000" font-family="sans-serif" font-size="14" lengthAdjust="spacing" textLength="161" x="253.5" y="269.7789">sector : VARCHAR(100)</text></g><!--class USUARIO--><g id="elem_USUARIO"><rect codeLine="7" fill="#F1F1F1" height="113.1875" id="USUARIO" rx="2.5" ry="2.5" style="stroke:#181818;stroke-width:0.5;" width="199" x="7" y="369.68"/><ellipse cx="71.25" cy="385.68" fill="#ADD1B2" rx="11" ry="11" style="stroke:#181818;stroke-width:1.0;"/><path d="M75.3594,391.68 L67.6406,391.68 L67.6406,379.2894 L75.3594,379.2894 L75.3594,381.4456 L70.0938,381.4456 L70.0938,384.1175 L74.8594,384.1175 L74.8594,386.2738 L70.0938,386.2738 L70.0938,389.5238 L75.3594,389.5238 L75.3594,391.68 Z " fill="#000000"/><text fill="#000000" font-family="sans-serif" font-size="14" lengthAdjust="spacing" textLength="62" x="91.75" y="390.5267">USUARIO</text><line style="stroke:#181818;stroke-width:0.5;" x1="8" x2="205" y1="401.68" y2="401.68"/><line style="stroke:#181818;stroke-width:0.5;" x1="8" x2="205" y1="409.68" y2="409.68"/><text fill="#000000" font-family="sans-serif" font-size="14" lengthAdjust="spacing" textLength="178" x="13" y="426.6751">id_usuario : VARCHAR(PK)</text><text fill="#000000" font-family="sans-serif" font-size="14" lengthAdjust="spacing" textLength="171" x="13" y="442.972">nombre : VARCHAR(255)</text><text fill="#000000" font-family="sans-serif" font-size="14" lengthAdjust="spacing" textLength="125" x="13" y="459.2689">rol : VARCHAR(50)</text><text fill="#000000" font-family="sans-serif" font-size="14" lengthAdjust="spacing" textLength="187" x="13" y="475.5657">id_empresa : VARCHAR(FK)</text></g><!--class CATEGORIA_EMISION--><g id="elem_CATEGORIA_EMISION"><rect codeLine="14" fill="#F1F1F1" height="96.8906" id="CATEGORIA_EMISION" rx="2.5" ry="2.5" style="stroke:#181818;stroke-width:0.5;" width="209" x="384" y="7"/><ellipse cx="413.4" cy="23" fill="#ADD1B2" rx="11" ry="11" style="stroke:#181818;stroke-width:1.0;"/><path d="M417.5094,29 L409.7906,29 L409.7906,16.6094 L417.5094,16.6094 L417.5094,18.7656 L412.2438,18.7656 L412.2438,21.4375 L417.0094,21.4375 L417.0094,23.5938 L412.2438,23.5938 L412.2438,26.8438 L417.5094,26.8438 L417.5094,29 Z " fill="#000000"/><text fill="#000000" font-family="sans-serif" font-size="14" lengthAdjust="spacing" textLength="145" x="430.6" y="27.8467">CATEGORIA_EMISION</text><line style="stroke:#181818;stroke-width:0.5;" x1="385" x2="592" y1="39" y2="39"/><line style="stroke:#181818;stroke-width:0.5;" x1="385" x2="592" y1="47" y2="47"/><text fill="#000000" font-family="sans-serif" font-size="14" lengthAdjust="spacing" textLength="191" x="390" y="63.9951">id_categoria : VARCHAR(PK)</text><text fill="#000000" font-family="sans-serif" font-size="14" lengthAdjust="spacing" textLength="171" x="390" y="80.292">nombre : VARCHAR(255)</text><text fill="#000000" font-family="sans-serif" font-size="14" lengthAdjust="spacing" textLength="197" x="390" y="96.5889">descripcion : VARCHAR(255)</text></g><!--class ALCANCE--><g id="elem_ALCANCE"><rect codeLine="20" fill="#F1F1F1" height="96.8906" id="ALCANCE" rx="2.5" ry="2.5" style="stroke:#181818;stroke-width:0.5;" width="209" x="628" y="7"/><ellipse cx="696.25" cy="23" fill="#ADD1B2" rx="11" ry="11" style="stroke:#181818;stroke-width:1.0;"/><path d="M700.3594,29 L692.6406,29 L692.6406,16.6094 L700.3594,16.6094 L700.3594,18.7656 L695.0938,18.7656 L695.0938,21.4375 L699.8594,21.4375 L699.8594,23.5938 L695.0938,23.5938 L695.0938,26.8438 L700.3594,26.8438 L700.3594,29 Z " fill="#000000"/><text fill="#000000" font-family="sans-serif" font-size="14" lengthAdjust="spacing" textLength="64" x="716.75" y="27.8467">ALCANCE</text><line style="stroke:#181818;stroke-width:0.5;" x1="629" x2="836" y1="39" y2="39"/><line style="stroke:#181818;stroke-width:0.5;" x1="629" x2="836" y1="47" y2="47"/><text fill="#000000" font-family="sans-serif" font-size="14" lengthAdjust="spacing" textLength="135" x="634" y="63.9951">id_alcance : INT(PK)</text><text fill="#000000" font-family="sans-serif" font-size="14" lengthAdjust="spacing" textLength="171" x="634" y="80.292">nombre : VARCHAR(255)</text><text fill="#000000" font-family="sans-serif" font-size="14" lengthAdjust="spacing" textLength="197" x="634" y="96.5889">descripcion : VARCHAR(255)</text></g><!--class FUENTE_EMISION--><g id="elem_FUENTE_EMISION"><rect codeLine="26" fill="#F1F1F1" height="129.4844" id="FUENTE_EMISION" rx="2.5" ry="2.5" style="stroke:#181818;stroke-width:0.5;" width="245" x="488" y="163.89"/><ellipse cx="546.75" cy="179.89" fill="#ADD1B2" rx="11" ry="11" style="stroke:#181818;stroke-width:1.0;"/><path d="M550.8594,185.89 L543.1406,185.89 L543.1406,173.4994 L550.8594,173.4994 L550.8594,175.6556 L545.5938,175.6556 L545.5938,178.3275 L550.3594,178.3275 L550.3594,180.4838 L545.5938,180.4838 L545.5938,183.7338 L550.8594,183.7338 L550.8594,185.89 Z " fill="#000000"/><text fill="#000000" font-family="sans-serif" font-size="14" lengthAdjust="spacing" textLength="119" x="567.25" y="184.7367">FUENTE_EMISION</text><line style="stroke:#181818;stroke-width:0.5;" x1="489" x2="732" y1="195.89" y2="195.89"/><text fill="#000000" font-family="sans-serif" font-size="14" lengthAdjust="spacing" textLength="177" x="494" y="212.8851">factor_emision : NUMERIC</text><line style="stroke:#181818;stroke-width:0.5;" x1="489" x2="732" y1="220.1869" y2="220.1869"/><text fill="#000000" font-family="sans-serif" font-size="14" lengthAdjust="spacing" textLength="233" x="494" y="237.182">id_fuente_emision : VARCHAR(PK)</text><text fill="#000000" font-family="sans-serif" font-size="14" lengthAdjust="spacing" textLength="171" x="494" y="253.4789">nombre : VARCHAR(255)</text><text fill="#000000" font-family="sans-serif" font-size="14" lengthAdjust="spacing" textLength="190" x="494" y="269.7757">id_categoria : VARCHAR(FK)</text><text fill="#000000" font-family="sans-serif" font-size="14" lengthAdjust="spacing" textLength="134" x="494" y="286.0726">id_alcance : INT(FK)</text></g><!--class EMISION--><g id="elem_EMISION"><rect codeLine="34" fill="#F1F1F1" height="145.7813" id="EMISION" rx="2.5" ry="2.5" style="stroke:#181818;stroke-width:0.5;" width="244" x="488.5" y="353.38"/><ellipse cx="577.75" cy="369.38" fill="#ADD1B2" rx="11" ry="11" style="stroke:#181818;stroke-width:1.0;"/><path d="M581.8594,375.38 L574.1406,375.38 L574.1406,362.9894 L581.8594,362.9894 L581.8594,365.1456 L576.5938,365.1456 L576.5938,367.8175 L581.3594,367.8175 L581.3594,369.9738 L576.5938,369.9738 L576.5938,373.2238 L581.8594,373.2238 L581.8594,375.38 Z " fill="#000000"/><text fill="#000000" font-family="sans-serif" font-size="14" lengthAdjust="spacing" textLength="57" x="598.25" y="374.2267">EMISION</text><line style="stroke:#181818;stroke-width:0.5;" x1="489.5" x2="731.5" y1="385.38" y2="385.38"/><text fill="#000000" font-family="sans-serif" font-size="14" lengthAdjust="spacing" textLength="89" x="494.5" y="402.3751">fecha : DATE</text><text fill="#000000" font-family="sans-serif" font-size="14" lengthAdjust="spacing" textLength="136" x="494.5" y="418.672">cantidad : NUMERIC</text><line style="stroke:#181818;stroke-width:0.5;" x1="489.5" x2="731.5" y1="425.9738" y2="425.9738"/><text fill="#000000" font-family="sans-serif" font-size="14" lengthAdjust="spacing" textLength="181" x="494.5" y="442.9689">id_emision : VARCHAR(PK)</text><text fill="#000000" font-family="sans-serif" font-size="14" lengthAdjust="spacing" textLength="155" x="494.5" y="459.2657">unidad : VARCHAR(50)</text><text fill="#000000" font-family="sans-serif" font-size="14" lengthAdjust="spacing" textLength="187" x="494.5" y="475.5626">id_empresa : VARCHAR(FK)</text><text fill="#000000" font-family="sans-serif" font-size="14" lengthAdjust="spacing" textLength="232" x="494.5" y="491.8595">id_fuente_emision : VARCHAR(FK)</text></g><!--class REPORTE--><g id="elem_REPORTE"><rect codeLine="43" fill="#F1F1F1" height="113.1875" id="REPORTE" rx="2.5" ry="2.5" style="stroke:#181818;stroke-width:0.5;" width="213" x="241" y="369.68"/><ellipse cx="309.75" cy="385.68" fill="#ADD1B2" rx="11" ry="11" style="stroke:#181818;stroke-width:1.0;"/><path d="M313.8594,391.68 L306.1406,391.68 L306.1406,379.2894 L313.8594,379.2894 L313.8594,381.4456 L308.5938,381.4456 L308.5938,384.1175 L313.3594,384.1175 L313.3594,386.2738 L308.5938,386.2738 L308.5938,389.5238 L313.8594,389.5238 L313.8594,391.68 Z " fill="#000000"/><text fill="#000000" font-family="sans-serif" font-size="14" lengthAdjust="spacing" textLength="67" x="330.25" y="390.5267">REPORTE</text><line style="stroke:#181818;stroke-width:0.5;" x1="242" x2="453" y1="401.68" y2="401.68"/><text fill="#000000" font-family="sans-serif" font-size="14" lengthAdjust="spacing" textLength="174" x="247" y="418.6751">fecha_generacion : DATE</text><line style="stroke:#181818;stroke-width:0.5;" x1="242" x2="453" y1="425.9769" y2="425.9769"/><text fill="#000000" font-family="sans-serif" font-size="14" lengthAdjust="spacing" textLength="178" x="247" y="442.972">id_reporte : VARCHAR(PK)</text><text fill="#000000" font-family="sans-serif" font-size="14" lengthAdjust="spacing" textLength="201" x="247" y="459.2689">tipo_reporte : VARCHAR(100)</text><text fill="#000000" font-family="sans-serif" font-size="14" lengthAdjust="spacing" textLength="187" x="247" y="475.5657">id_empresa : VARCHAR(FK)</text></g><!--link EMPRESA to USUARIO--><g id="link_EMPRESA_USUARIO"><path codeLine="50" d="M288.54,277.49 C254.4,305.21 211.25,340.24 175.53,369.23 " fill="none" id="EMPRESA-USUARIO" style="stroke:#181818;stroke-width:1.0;"/><text fill="#000000" font-family="sans-serif" font-size="13" lengthAdjust="spacing" textLength="24" x="255.0048" y="297.1385">1..1</text><text fill="#000000" font-family="sans-serif" font-size="13" lengthAdjust="spacing" textLength="23" x="159.5415" y="358.4387">0..*</text></g><!--link EMPRESA to EMISION--><g id="link_EMPRESA_EMISION"><path codeLine="51" d="M411.84,277.49 C442.33,300.17 479.4,327.75 513.23,352.92 " fill="none" id="EMPRESA-EMISION" style="stroke:#181818;stroke-width:1.0;"/><text fill="#000000" font-family="sans-serif" font-size="13" lengthAdjust="spacing" textLength="24" x="394.8732" y="297.1385">1..1</text><text fill="#000000" font-family="sans-serif" font-size="13" lengthAdjust="spacing" textLength="23" x="479.8629" y="342.2871">0..*</text></g><!--link EMPRESA to REPORTE--><g id="link_EMPRESA_REPORTE"><path codeLine="52" d="M347.5,277.49 C347.5,305.21 347.5,340.24 347.5,369.23 " fill="none" id="EMPRESA-REPORTE" style="stroke:#181818;stroke-width:1.0;"/><text fill="#000000" font-family="sans-serif" font-size="13" lengthAdjust="spacing" textLength="24" x="321.8875" y="297.1385">1..1</text><text fill="#000000" font-family="sans-serif" font-size="13" lengthAdjust="spacing" textLength="23" x="323.0984" y="358.4387">0..*</text></g><!--link CATEGORIA_EMISION to FUENTE_EMISION--><g id="link_CATEGORIA_EMISION_FUENTE_EMISION"><path codeLine="53" d="M522.48,104.13 C535.6,122.54 550.8,143.87 564.84,163.57 " fill="none" id="CATEGORIA_EMISION-FUENTE_EMISION" style="stroke:#181818;stroke-width:1.0;"/><text fill="#000000" font-family="sans-serif" font-size="13" lengthAdjust="spacing" textLength="24" x="501.5709" y="124.1072">1..1</text><text fill="#000000" font-family="sans-serif" font-size="13" lengthAdjust="spacing" textLength="23" x="535.5881" y="152.7077">0..*</text></g><!--link ALCANCE to FUENTE_EMISION--><g id="link_ALCANCE_FUENTE_EMISION"><path codeLine="54" d="M698.52,104.13 C685.4,122.54 670.2,143.87 656.16,163.57 " fill="none" id="ALCANCE-FUENTE_EMISION" style="stroke:#181818;stroke-width:1.0;"/><text fill="#000000" font-family="sans-serif" font-size="13" lengthAdjust="spacing" textLength="24" x="668.0541" y="124.1072">1..1</text><text fill="#000000" font-family="sans-serif" font-size="13" lengthAdjust="spacing" textLength="23" x="636.8963" y="152.7077">0..*</text></g><!--link FUENTE_EMISION to EMISION--><g id="link_FUENTE_EMISION_EMISION"><path codeLine="55" d="M610.5,293.69 C610.5,312.64 610.5,333.51 610.5,352.94 " fill="none" id="FUENTE_EMISION-EMISION" style="stroke:#181818;stroke-width:1.0;"/><text fill="#000000" font-family="sans-serif" font-size="13" lengthAdjust="spacing" textLength="24" x="585.2625" y="313.2463">1..1</text><text fill="#000000" font-family="sans-serif" font-size="13" lengthAdjust="spacing" textLength="23" x="586.4039" y="342.3091">0..*</text></g><!--SRC=[hLCzRuCm4Dtv5HPJgHH4Ah5qiwZJeZGGEP0rSiqbjPHWPCnGLVtlXHPQ840PEle-thsxzmof5leDaSsMaXr6xmP28Zd09LEGCtIFzfXwJvZURDTMcKhbvKL1AtpdkbKy1wwbQiMNZcCP7uO1t_3nBiRK3nlu8Y-O4d8sl9BdLj1rh36MgtLxgeSZyXXI7n_8nj_vOT3Cvqp3IIenVy44Sgv4neLC-ydVUVZPmu57cYdip5dAAp0_YFu3VnMJ82BzPOv5cORo62BlTazFFB9AibPR46y8zRtn2wtMrj1YtPlto8snEW9_hR0VIedAPucdHSAI3eqYhKCpXP- -HfSc9TkGHZzIASYaqZ1Cyt2251IhjQaPQv79WROltq-Ri_bgvjAsboPQB93fsFQjsNoIyOBwjkC5zLR6jV6lIhjUCXhh_bNNi-0enKy0]--></g></svg>